# This file uses centimeters as units for non-parametric coordinates.

mtllib bottle_and_cork.mtl
g default
v 1.231957 2.268514 -1.231957
v 0.000000 2.268514 -1.742250
v -1.231957 2.268514 -1.231957
v -1.742250 2.268514 -0.000000
v -1.231957 2.268514 1.231957
v 0.000000 2.268514 1.742250
v 1.231957 2.268514 1.231957
v 1.742250 2.268514 -0.000000
v 1.538811 2.268480 -1.538811
v -0.000000 2.268480 -2.176207
v -1.538810 2.268480 -1.538811
v -2.176207 2.268480 0.000000
v -1.538810 2.268480 1.538811
v -0.000000 2.268480 2.176207
v 1.538811 2.268480 1.538811
v 2.176207 2.268480 0.000000
v 1.405898 -2.268137 -1.405898
v 0.000000 -2.268137 -1.988239
v -1.405898 -2.268137 -1.405898
v -1.988239 -2.268137 0.000000
v -1.405898 -2.268137 1.405898
v 0.000000 -2.268137 1.988239
v 1.405898 -2.268137 1.405898
v 1.988240 -2.268137 0.000000
v 1.144073 -2.262450 -1.144073
v 0.000000 -2.262450 -1.617964
v -1.144073 -2.262450 -1.144073
v -1.617964 -2.262450 0.000000
v -1.144073 -2.262450 1.144073
v 0.000000 -2.262450 1.617964
v 1.144073 -2.262450 1.144073
v 1.617964 -2.262450 0.000000
v -1.278981 -1.894750 1.278981
v 0.000000 -1.894750 1.808752
v 1.278981 -1.894750 1.278981
v 1.808752 -1.894750 -0.000000
v 1.278981 -1.894750 -1.278981
v 0.000000 -1.894750 -1.808752
v -1.278981 -1.894750 -1.278981
v -1.808752 -1.894750 -0.000000
v 0.003455 -2.262104 0.000000
v 0.727286 3.641119 -0.727286
v 0.000000 3.641119 -1.028538
v 0.908437 3.641099 -0.908437
v 0.000000 3.641099 -1.284724
v -0.727286 3.641119 -0.727286
v -0.908437 3.641099 -0.908437
v -1.028538 3.641119 -0.000000
v -1.284724 3.641099 -0.000000
v -0.727286 3.641119 0.727286
v -0.908437 3.641099 0.908437
v 0.000000 3.641119 1.028538
v 0.000000 3.641099 1.284724
v 0.727286 3.641119 0.727286
v 0.908437 3.641099 0.908437
v 1.028538 3.641119 -0.000000
v 1.284724 3.641099 -0.000000
v 0.727286 4.536006 -0.727286
v 0.000000 4.536006 -1.028538
v 0.908437 4.535986 -0.908437
v 0.000000 4.535986 -1.284724
v -0.727286 4.536006 -0.727286
v -0.908437 4.535986 -0.908437
v -1.028538 4.536006 -0.000000
v -1.284724 4.535986 -0.000000
v -0.727286 4.536006 0.727286
v -0.908437 4.535986 0.908437
v 0.000000 4.536006 1.028538
v 0.000000 4.535986 1.284724
v 0.727286 4.536006 0.727286
v 0.908437 4.535986 0.908437
v 1.028538 4.536006 -0.000000
v 1.284724 4.535986 -0.000000
v -0.908437 4.198416 -0.908437
v 0.000000 4.198416 -1.284724
v 0.908437 4.198416 -0.908437
v 1.284724 4.198416 -0.000000
v 0.908437 4.198416 0.908437
v 0.000000 4.198416 1.284724
v -0.908437 4.198416 0.908437
v -1.284724 4.198416 -0.000000
v -1.010996 4.179360 -1.010996
v 0.000000 4.179360 -1.429765
v -1.010996 4.555042 -1.010996
v 0.000000 4.555042 -1.429765
v 1.010996 4.179360 -1.010996
v 1.010996 4.555042 -1.010996
v 1.429765 4.179360 -0.000000
v 1.429765 4.555042 -0.000000
v 1.010996 4.179360 1.010996
v 1.010996 4.555042 1.010996
v 0.000000 4.179360 1.429764
v 0.000000 4.555042 1.429764
v -1.010996 4.179360 1.010996
v -1.010996 4.555042 1.010996
v -1.429765 4.179360 -0.000000
v -1.429765 4.555042 -0.000000
v -1.057053 4.367201 -1.057053
v 0.000000 4.367201 -1.494899
v 1.057053 4.367201 -1.057053
v 1.494899 4.367201 -0.000000
v 1.057053 4.367201 1.057053
v 0.000000 4.367201 1.494899
v -1.057053 4.367201 1.057053
v -1.494898 4.367201 -0.000000
v 1.773075 0.187791 -1.773075
v -0.000000 0.187791 -2.507508
v -1.773075 0.187791 -1.773075
v -2.507508 0.187791 0.000000
v -1.773075 0.187791 1.773075
v -0.000000 0.187791 2.507508
v 1.773076 0.187791 1.773076
v 2.507508 0.187791 0.000000
v -2.138139 0.186798 -0.000000
v -1.511892 0.186798 1.511893
v -0.000000 0.186798 2.138139
v 1.511893 0.186798 1.511893
v 2.138139 0.186798 -0.000000
v 1.511893 0.186798 -1.511893
v -0.000000 0.186798 -2.138139
v -1.511892 0.186798 -1.511893
vt 0.000000 1.000000
vt 0.125000 1.000000
vt 0.250000 1.000000
vt 0.375000 1.000000
vt 0.500000 1.000000
vt 0.625000 1.000000
vt 0.750000 1.000000
vt 0.875000 1.000000
vt 1.000000 1.000000
vt 0.000000 0.750000
vt 0.125000 0.750000
vt 0.250000 0.750000
vt 0.375000 0.750000
vt 0.500000 0.750000
vt 0.625000 0.750000
vt 0.750000 0.750000
vt 0.875000 0.750000
vt 1.000000 0.750000
vt 0.000000 0.500000
vt 0.125000 0.500000
vt 0.250000 0.500000
vt 0.375000 0.500000
vt 0.500000 0.500000
vt 0.625000 0.500000
vt 0.750000 0.500000
vt 0.875000 0.500000
vt 1.000000 0.500000
vt 0.000000 0.250000
vt 0.125000 0.250000
vt 0.250000 0.250000
vt 0.375000 0.250000
vt 0.500000 0.250000
vt 0.625000 0.250000
vt 0.750000 0.250000
vt 0.875000 0.250000
vt 1.000000 0.250000
vt 0.000000 0.000000
vt 0.125000 0.000000
vt 0.250000 0.000000
vt 0.375000 0.000000
vt 0.500000 0.000000
vt 0.625000 0.000000
vt 0.750000 0.000000
vt 0.875000 0.000000
vt 1.000000 0.000000
vt 0.500000 0.229729
vt 0.625000 0.229729
vt 0.750000 0.229729
vt 0.875000 0.229729
vt 0.000000 0.229729
vt 1.000000 0.229729
vt 0.125000 0.229729
vt 0.250000 0.229729
vt 0.375000 0.229729
vt 0.000000 0.000000
vt 1.000000 0.000000
vt 1.000000 1.000000
vt 0.000000 1.000000
vt 0.000000 0.000000
vt 1.000000 0.000000
vt 1.000000 1.000000
vt 0.000000 1.000000
vt 0.000000 0.000000
vt 1.000000 0.500000
vt 0.000000 1.000000
vt 0.000000 0.000000
vt 1.000000 0.000000
vt 0.500000 1.000000
vt 0.000000 0.000000
vt 1.000000 0.000000
vt 1.000000 1.000000
vt 0.000000 1.000000
vt 0.000000 0.000000
vt 1.000000 0.000000
vt 1.000000 1.000000
vt 0.000000 1.000000
vt 0.000000 0.000000
vt 1.000000 0.000000
vt 1.000000 1.000000
vt 0.000000 1.000000
vt 0.000000 0.000000
vt 1.000000 0.000000
vt 1.000000 1.000000
vt 0.000000 1.000000
vt 0.125000 1.000000
vt 0.000000 1.000000
vt 0.000000 0.750000
vt 0.125000 0.750000
vt 0.250000 1.000000
vt 0.250000 0.750000
vt 0.375000 1.000000
vt 0.375000 0.750000
vt 0.500000 1.000000
vt 0.500000 0.750000
vt 0.625000 1.000000
vt 0.625000 0.750000
vt 0.750000 1.000000
vt 0.750000 0.750000
vt 0.875000 1.000000
vt 0.875000 0.750000
vt 1.000000 1.000000
vt 1.000000 0.750000
vt 0.125000 1.000000
vt 0.000000 1.000000
vt 0.000000 0.750000
vt 0.125000 0.750000
vt 0.250000 1.000000
vt 0.250000 0.750000
vt 0.375000 1.000000
vt 0.375000 0.750000
vt 0.500000 1.000000
vt 0.500000 0.750000
vt 0.625000 1.000000
vt 0.625000 0.750000
vt 0.750000 1.000000
vt 0.750000 0.750000
vt 0.875000 1.000000
vt 0.875000 0.750000
vt 1.000000 1.000000
vt 1.000000 0.750000
vt 0.250000 0.750000
vt 0.125000 0.750000
vt 1.000000 0.750000
vt 0.000000 0.750000
vt 0.875000 0.750000
vt 0.750000 0.750000
vt 0.625000 0.750000
vt 0.500000 0.750000
vt 0.375000 0.750000
vt 0.125000 0.750000
vt 0.250000 0.750000
vt 0.250000 0.750000
vt 0.125000 0.750000
vt 0.000000 0.750000
vt 0.000000 0.750000
vt 0.875000 0.750000
vt 1.000000 0.750000
vt 1.000000 0.750000
vt 0.875000 0.750000
vt 0.750000 0.750000
vt 0.750000 0.750000
vt 0.625000 0.750000
vt 0.625000 0.750000
vt 0.500000 0.750000
vt 0.500000 0.750000
vt 0.375000 0.750000
vt 0.375000 0.750000
vt 0.250000 0.750000
vt 0.125000 0.750000
vt 1.000000 0.750000
vt 0.000000 0.750000
vt 0.875000 0.750000
vt 0.750000 0.750000
vt 0.625000 0.750000
vt 0.500000 0.750000
vt 0.375000 0.750000
vt 0.000000 0.625000
vt 1.000000 0.625000
vt 0.125000 0.625000
vt 0.250000 0.625000
vt 0.375000 0.625000
vt 0.500000 0.625000
vt 0.625000 0.625000
vt 0.750000 0.625000
vt 0.875000 0.625000
vt 0.375000 0.114865
vt 0.500000 0.114865
vt 0.625000 0.114865
vt 0.750000 0.114865
vt 0.875000 0.114865
vt 0.000000 0.114865
vt 1.000000 0.114865
vt 0.125000 0.114865
vt 0.250000 0.114865
vn 0.000000 0.094998 0.995477
vn -0.703909 0.094998 0.703909
vn -0.046321 0.997852 0.046321
vn 0.000000 0.997852 0.065508
vn 0.703909 0.094998 0.703909
vn 0.046321 0.997852 0.046321
vn 0.995477 0.094998 0.000000
vn 0.065508 0.997852 0.000000
vn 0.703909 0.094998 -0.703909
vn 0.046321 0.997852 -0.046321
vn 0.000000 0.094998 -0.995477
vn -0.000000 0.997852 -0.065508
vn -0.703909 0.094998 -0.703909
vn -0.046321 0.997852 -0.046322
vn -0.995477 0.094998 -0.000000
vn -0.065508 0.997852 -0.000000
vn 0.000000 0.258234 -0.966083
vn 0.683123 0.258234 -0.683124
vn 0.707096 -0.005539 -0.707096
vn 0.000000 -0.005539 -0.999985
vn -0.683123 0.258234 -0.683124
vn -0.707096 -0.005539 -0.707096
vn -0.966082 0.258234 -0.000000
vn -0.999985 -0.005539 -0.000000
vn -0.707096 -0.005539 0.707096
vn -0.683123 0.258234 0.683124
vn -0.000000 0.258234 0.966083
vn -0.000000 -0.005539 0.999985
vn 0.683123 0.258234 0.683124
vn 0.707096 -0.005539 0.707096
vn 0.966083 0.258234 -0.000000
vn 0.999985 -0.005539 -0.000000
vn 0.000000 -0.406556 -0.913626
vn 0.646031 -0.406556 -0.646031
vn -0.682613 -0.260920 0.682613
vn -0.000000 -0.469617 0.882870
vn -0.646031 -0.406556 -0.646031
vn 0.682613 -0.260920 0.682613
vn -0.913626 -0.406557 -0.000000
vn 0.882870 -0.469617 -0.000000
vn -0.646031 -0.406556 0.646031
vn 0.682613 -0.260920 -0.682613
vn -0.000000 -0.406556 0.913626
vn -0.000000 -0.469617 -0.882870
vn 0.646031 -0.406556 0.646031
vn -0.682613 -0.260920 -0.682613
vn 0.913626 -0.406556 -0.000000
vn -0.882870 -0.469617 0.000000
vn -0.659081 0.362248 0.659082
vn 0.000000 0.304963 0.952364
vn 0.659081 0.362248 0.659081
vn 0.932082 0.362247 -0.000000
vn 0.659081 0.362248 -0.659081
vn 0.000000 0.304963 -0.952364
vn -0.659081 0.362248 -0.659082
vn -0.932082 0.362248 0.000000
vn 0.707102 -0.003704 -0.707102
vn 0.000000 -0.003704 -0.999993
vn -0.707102 -0.003704 -0.707102
vn -0.999993 -0.003704 0.000000
vn -0.707102 -0.003704 0.707102
vn 0.000000 -0.003704 0.999993
vn 0.707102 -0.003704 0.707102
vn 0.999993 -0.003704 -0.000000
vn -0.000000 -1.000000 0.000000
vn 0.000000 -0.273924 0.961751
vn -0.680061 -0.273925 0.680061
vn -0.704882 -0.079259 0.704882
vn 0.000000 -0.079259 0.996854
vn -0.000000 0.082153 -0.996620
vn 0.704716 0.082153 -0.704717
vn 0.680061 -0.273924 0.680061
vn 0.704882 -0.079259 0.704882
vn -0.704717 0.082153 -0.704717
vn 0.961751 -0.273924 -0.000000
vn 0.996854 -0.079259 -0.000000
vn -0.996620 0.082153 -0.000000
vn 0.680061 -0.273924 -0.680061
vn 0.704882 -0.079259 -0.704882
vn -0.704717 0.082153 0.704717
vn 0.000000 -0.273924 -0.961751
vn 0.000000 -0.079259 -0.996854
vn -0.000000 0.082153 0.996620
vn -0.680061 -0.273925 -0.680061
vn -0.704882 -0.079259 -0.704882
vn 0.704716 0.082153 0.704717
vn -0.961751 -0.273925 0.000000
vn -0.996854 -0.079259 0.000000
vn 0.996620 0.082153 -0.000000
vn -0.000000 -0.096185 -0.995363
vn 0.703828 -0.096185 -0.703828
vn -0.703828 -0.096185 -0.703828
vn -0.995363 -0.096185 -0.000000
vn -0.703828 -0.096185 0.703828
vn -0.000000 -0.096185 0.995363
vn 0.703828 -0.096185 0.703828
vn 0.995363 -0.096185 -0.000000
vn -0.000000 -0.595567 -0.803306
vn -0.568023 -0.595567 -0.568023
vn -0.707107 0.000000 -0.707107
vn -0.000000 0.000000 -1.000000
vn 0.568023 -0.595567 -0.568023
vn 0.707107 0.000000 -0.707107
vn 0.803306 -0.595567 0.000000
vn 1.000000 0.000000 0.000000
vn 0.568023 -0.595567 0.568023
vn 0.707107 -0.000000 0.707107
vn -0.000000 -0.595567 0.803306
vn -0.000000 -0.000000 1.000000
vn -0.568023 -0.595567 0.568022
vn -0.707107 0.000000 0.707107
vn -0.803306 -0.595567 -0.000000
vn -1.000000 0.000000 -0.000000
vn -0.000000 0.595568 -0.803305
vn -0.568023 0.595567 -0.568022
vn 0.568023 0.595567 -0.568022
vn 0.803305 0.595567 0.000000
vn 0.568023 0.595567 0.568022
vn -0.000000 0.595567 0.803305
vn -0.568023 0.595567 0.568023
vn -0.803305 0.595567 -0.000000
s 1
g pTorus1
usemtl initialShadingGroup
f 59/103/1 58/104/2 60/105/3 61/106/4
f 62/107/5 59/103/1 61/106/4 63/108/6
f 64/109/7 62/107/5 63/108/6 65/110/8
f 66/111/9 64/109/7 65/110/8 67/112/10
f 68/113/11 66/111/9 67/112/10 69/114/12
f 70/115/13 68/113/11 69/114/12 71/116/14
f 72/117/15 70/115/13 71/116/14 73/118/16
f 58/119/2 72/117/15 73/118/16 60/120/3
f 10/11/17 9/10/18 106/157/19 107/159/20
f 11/12/21 10/11/17 107/159/20 108/160/22
f 12/13/23 11/12/21 108/160/22 109/161/24
f 110/162/25 13/14/26 12/13/23 109/161/24
f 14/15/27 13/14/26 110/162/25 111/163/28
f 15/16/29 14/15/27 111/163/28 112/164/30
f 16/17/31 15/16/29 112/164/30 113/165/32
f 9/18/18 16/17/31 113/165/32 106/158/19
f 18/20/33 17/19/34 25/28/35 26/29/36
f 19/21/37 18/20/33 26/29/36 27/30/38
f 20/22/39 19/21/37 27/30/38 28/31/40
f 21/23/41 20/22/39 28/31/40 29/32/42
f 22/24/43 21/23/41 29/32/42 30/33/44
f 23/25/45 22/24/43 30/33/44 31/34/46
f 24/26/47 23/25/45 31/34/46 32/35/48
f 17/27/34 24/26/47 32/35/48 25/36/35
s 3
f 26/29/36 25/28/35 37/50/49 38/52/50
f 27/30/38 26/29/36 38/52/50 39/53/51
f 28/31/40 27/30/38 39/53/51 40/54/52
f 29/32/42 28/31/40 40/54/52 33/46/53
f 30/33/44 29/32/42 33/46/53 34/47/54
f 31/34/46 30/33/44 34/47/54 35/48/55
f 32/35/48 31/34/46 35/48/55 36/49/56
f 25/36/35 32/35/48 36/49/56 37/51/49
s 1
f 34/47/54 33/46/53 115/167/57 116/168/58
f 35/48/55 34/47/54 116/168/58 117/169/59
f 36/49/56 35/48/55 117/169/59 118/170/60
f 37/51/49 36/49/56 118/170/60 119/172/61
f 38/52/50 37/50/49 119/171/61 120/173/62
f 39/53/51 38/52/50 120/173/62 121/174/63
f 40/54/52 39/53/51 121/174/63 114/166/64
f 33/46/53 40/54/52 114/166/64 115/167/57
s 5
f 39/55/51 40/56/52 36/57/56 37/58/49
f 40/59/52 33/60/53 35/61/55 36/62/56
f 38/63/50 39/64/51 37/65/49
f 35/66/55 33/67/53 34/68/54
s 6
f 31/69/46 30/72/44 41/71/65 32/70/48
f 32/73/48 41/76/65 26/75/36 25/74/35
f 41/77/65 30/78/44 29/79/42 28/80/40
f 26/81/36 41/82/65 28/83/40 27/84/38
s 1
f 2/2/66 1/1/67 42/86/68 43/85/69
f 9/10/18 10/11/17 45/88/70 44/87/71
f 3/3/72 2/2/66 43/85/69 46/89/73
f 10/11/17 11/12/21 47/90/74 45/88/70
f 4/4/75 3/3/72 46/89/73 48/91/76
f 11/12/21 12/13/23 49/92/77 47/90/74
f 5/5/78 4/4/75 48/91/76 50/93/79
f 12/13/23 13/14/26 51/94/80 49/92/77
f 6/6/81 5/5/78 50/93/79 52/95/82
f 13/14/26 14/15/27 53/96/83 51/94/80
f 7/7/84 6/6/81 52/95/82 54/97/85
f 14/15/27 15/16/29 55/98/86 53/96/83
f 8/8/87 7/7/84 54/97/85 56/99/88
f 15/16/29 16/17/31 57/100/89 55/98/86
f 1/9/67 8/8/87 56/99/88 42/101/68
f 16/17/31 9/18/18 44/102/71 57/100/89
f 43/85/69 42/86/68 58/104/2 59/103/1
f 44/87/71 45/88/70 75/122/90 76/124/91
f 46/89/73 43/85/69 59/103/1 62/107/5
f 45/88/70 47/90/74 74/121/92 75/122/90
f 48/91/76 46/89/73 62/107/5 64/109/7
f 47/90/74 49/92/77 81/129/93 74/121/92
f 50/93/79 48/91/76 64/109/7 66/111/9
f 49/92/77 51/94/80 80/128/94 81/129/93
f 52/95/82 50/93/79 66/111/9 68/113/11
f 51/94/80 53/96/83 79/127/95 80/128/94
f 54/97/85 52/95/82 68/113/11 70/115/13
f 53/96/83 55/98/86 78/126/96 79/127/95
f 56/99/88 54/97/85 70/115/13 72/117/15
f 55/98/86 57/100/89 77/125/97 78/126/96
f 42/101/68 56/99/88 72/117/15 58/119/2
f 57/100/89 44/102/71 76/123/91 77/125/97
f 83/130/98 82/131/99 98/148/100 99/149/101
f 86/134/102 83/130/98 99/149/101 100/151/103
f 88/136/104 86/137/102 100/150/103 101/152/105
f 90/140/106 88/136/104 101/152/105 102/153/107
f 92/142/108 90/140/106 102/153/107 103/154/109
f 94/144/110 92/142/108 103/154/109 104/155/111
f 96/146/112 94/144/110 104/155/111 105/156/113
f 82/131/99 96/146/112 105/156/113 98/148/100
f 75/122/90 74/121/92 82/131/99 83/130/98
f 63/108/6 61/106/4 85/133/114 84/132/115
f 76/124/91 75/122/90 83/130/98 86/134/102
f 61/106/4 60/105/3 87/135/116 85/133/114
f 77/125/97 76/123/91 86/137/102 88/136/104
f 60/120/3 73/118/16 89/139/117 87/138/116
f 78/126/96 77/125/97 88/136/104 90/140/106
f 73/118/16 71/116/14 91/141/118 89/139/117
f 79/127/95 78/126/96 90/140/106 92/142/108
f 71/116/14 69/114/12 93/143/119 91/141/118
f 80/128/94 79/127/95 92/142/108 94/144/110
f 69/114/12 67/112/10 95/145/120 93/143/119
f 81/129/93 80/128/94 94/144/110 96/146/112
f 67/112/10 65/110/8 97/147/121 95/145/120
f 74/121/92 81/129/93 96/146/112 82/131/99
f 65/110/8 63/108/6 84/132/115 97/147/121
f 99/149/101 98/148/100 84/132/115 85/133/114
f 100/151/103 99/149/101 85/133/114 87/135/116
f 101/152/105 100/150/103 87/138/116 89/139/117
f 102/153/107 101/152/105 89/139/117 91/141/118
f 103/154/109 102/153/107 91/141/118 93/143/119
f 104/155/111 103/154/109 93/143/119 95/145/120
f 105/156/113 104/155/111 95/145/120 97/147/121
f 98/148/100 105/156/113 97/147/121 84/132/115
f 107/159/20 106/157/19 17/19/34 18/20/33
f 108/160/22 107/159/20 18/20/33 19/21/37
f 109/161/24 108/160/22 19/21/37 20/22/39
f 21/23/41 110/162/25 109/161/24 20/22/39
f 111/163/28 110/162/25 21/23/41 22/24/43
f 112/164/30 111/163/28 22/24/43 23/25/45
f 113/165/32 112/164/30 23/25/45 24/26/47
f 106/158/19 113/165/32 24/26/47 17/27/34
f 115/167/57 114/166/64 4/40/75 5/41/78
f 116/168/58 115/167/57 5/41/78 6/42/81
f 117/169/59 116/168/58 6/42/81 7/43/84
f 118/170/60 117/169/59 7/43/84 8/44/87
f 119/172/61 118/170/60 8/44/87 1/45/67
f 120/173/62 119/171/61 1/37/67 2/38/66
f 121/174/63 120/173/62 2/38/66 3/39/72
f 114/166/64 121/174/63 3/39/72 4/40/75
g default
v 0.607211 3.477051 -0.607211
v 0.000000 3.477051 -0.858726
v -0.607211 3.477051 -0.607211
v -0.858726 3.477051 0.000000
v -0.607211 3.477051 0.607211
v 0.000000 3.477051 0.858726
v 0.607211 3.477051 0.607211
v 0.858726 3.477051 0.000000
v 0.831345 5.570471 -0.831345
v 0.000000 5.570471 -1.175699
v -0.831345 5.570471 -0.831345
v -1.175699 5.570471 0.000000
v -0.831345 5.570471 0.831345
v 0.000000 5.570471 1.175699
v 0.831345 5.570471 0.831345
v 1.175699 5.570471 0.000000
v 0.000000 3.476552 0.000000
v 0.000000 5.570471 0.000000
vt 0.610485 0.045765
vt 0.500000 0.000000
vt 0.389515 0.045765
vt 0.343750 0.156250
vt 0.389515 0.266735
vt 0.500000 0.312500
vt 0.610485 0.266735
vt 0.656250 0.156250
vt 0.375000 0.312500
vt 0.406250 0.312500
vt 0.437500 0.312500
vt 0.468750 0.312500
vt 0.500000 0.312500
vt 0.531250 0.312500
vt 0.562500 0.312500
vt 0.593750 0.312500
vt 0.625000 0.312500
vt 0.375000 0.688440
vt 0.406250 0.688440
vt 0.437500 0.688440
vt 0.468750 0.688440
vt 0.500000 0.688440
vt 0.531250 0.688440
vt 0.562500 0.688440
vt 0.593750 0.688440
vt 0.625000 0.688440
vt 0.610485 0.733265
vt 0.500000 0.687500
vt 0.389515 0.733265
vt 0.343750 0.843750
vt 0.389515 0.954235
vt 0.500000 1.000000
vt 0.610485 0.954235
vt 0.656250 0.843750
vt 0.500000 0.150000
vt 0.500000 0.837500
vn 0.479316 -0.735195 -0.479316
vn 0.000000 -0.735195 -0.677856
vn 0.000000 0.616182 -0.787604
vn 0.556920 0.616182 -0.556920
vn -0.479316 -0.735195 -0.479316
vn -0.556920 0.616182 -0.556920
vn -0.677856 -0.735195 0.000000
vn -0.787604 0.616181 -0.000000
vn -0.479316 -0.735195 0.479316
vn -0.556920 0.616182 0.556920
vn -0.000000 -0.735195 0.677856
vn -0.000000 0.616182 0.787604
vn 0.479316 -0.735195 0.479316
vn 0.556920 0.616182 0.556920
vn 0.677856 -0.735195 -0.000000
vn 0.787604 0.616182 -0.000000
vn -0.000000 -1.000000 0.000000
vn 0.000000 1.000000 0.000000
s 1
g pCylinder1
usemtl initialShadingGroup
f 122/183/122 123/184/123 131/193/124 130/192/125
f 123/184/123 124/185/126 132/194/127 131/193/124
f 124/185/126 125/186/128 133/195/129 132/194/127
f 125/186/128 126/187/130 134/196/131 133/195/129
f 126/187/130 127/188/132 135/197/133 134/196/131
f 127/188/132 128/189/134 136/198/135 135/197/133
f 128/189/134 129/190/136 137/199/137 136/198/135
f 129/190/136 122/191/122 130/200/125 137/199/137
f 123/176/123 122/175/122 138/209/138
f 124/177/126 123/176/123 138/209/138
f 125/178/128 124/177/126 138/209/138
f 126/179/130 125/178/128 138/209/138
f 127/180/132 126/179/130 138/209/138
f 128/181/134 127/180/132 138/209/138
f 129/182/136 128/181/134 138/209/138
f 122/175/122 129/182/136 138/209/138
f 130/207/125 131/206/124 139/210/139
f 131/206/124 132/205/127 139/210/139
f 132/205/127 133/204/129 139/210/139
f 133/204/129 134/203/131 139/210/139
f 134/203/131 135/202/133 139/210/139
f 135/202/133 136/201/135 139/210/139
f 136/201/135 137/208/137 139/210/139
f 137/208/137 130/207/125 139/210/139
