# This file uses centimeters as units for non-parametric coordinates.

g default
v -0.182449 -0.317218 0.015962
v -0.117724 -0.317218 0.140298
v 0.015962 -0.317218 0.182449
v 0.140298 -0.317218 0.117724
v 0.182449 -0.317218 -0.015962
v 0.117724 -0.317218 -0.140298
v -0.015962 -0.317218 -0.182449
v -0.140298 -0.317218 -0.117724
v -0.316011 -0.183146 0.027647
v -0.203904 -0.183146 0.243003
v 0.027647 -0.183146 0.316011
v 0.243003 -0.183146 0.203904
v 0.316011 -0.183146 -0.027647
v 0.203904 -0.183146 -0.243003
v -0.027647 -0.183146 -0.316011
v -0.243003 -0.183146 -0.203904
v -0.364897 0.000000 0.031924
v -0.235447 0.000000 0.280595
v 0.280595 0.000000 0.235447
v 0.364897 0.000000 -0.031924
v 0.235447 0.000000 -0.280595
v -0.031924 0.000000 -0.364897
v -0.280595 0.000000 -0.235447
v -0.316011 0.183146 0.027647
v -0.203904 0.183146 0.243003
v 0.027647 0.183146 0.316011
v 0.243003 0.183146 0.203904
v 0.316011 0.183146 -0.027647
v 0.203904 0.183146 -0.243003
v -0.027647 0.183146 -0.316011
v -0.243003 0.183146 -0.203904
v -0.182449 0.317218 0.015962
v -0.117724 0.317218 0.140298
v 0.015962 0.317218 0.182449
v 0.140298 0.317218 0.117724
v 0.182449 0.317218 -0.015962
v 0.117724 0.317218 -0.140298
v -0.015962 0.317218 -0.182449
v -0.140298 0.317218 -0.117724
v 0.000000 -0.366291 0.000000
v 0.000000 0.366291 0.000000
v 0.028623 -0.134197 0.327163
v -0.164341 -0.134611 0.268075
v -0.187915 0.000000 0.296842
v 0.208395 -0.134611 0.235464
v 0.236606 0.000000 0.259701
v 0.028623 0.134197 0.327163
v -0.164341 0.134611 0.268075
v 0.208395 0.134611 0.235464
v 0.023303 -0.117156 0.266350
v -0.144962 -0.117570 0.205101
v -0.168536 0.000000 0.233868
v 0.178376 -0.117570 0.176812
v 0.206586 0.000000 0.201049
v 0.023303 0.117156 0.266350
v -0.144962 0.117570 0.205101
v 0.178376 0.117570 0.176812
vt 0.000000 0.166667
vt 0.125000 0.166667
vt 0.125000 0.333333
vt 0.000000 0.333333
vt 0.250000 0.166667
vt 0.250000 0.333333
vt 0.375000 0.166667
vt 0.375000 0.333333
vt 0.500000 0.166667
vt 0.500000 0.333333
vt 0.625000 0.166667
vt 0.625000 0.333333
vt 0.750000 0.166667
vt 0.750000 0.333333
vt 0.875000 0.166667
vt 0.875000 0.333333
vt 1.000000 0.166667
vt 1.000000 0.333333
vt 0.125000 0.500000
vt 0.000000 0.500000
vt 0.375000 0.500000
vt 0.500000 0.500000
vt 0.625000 0.500000
vt 0.750000 0.500000
vt 0.875000 0.500000
vt 1.000000 0.500000
vt 0.125000 0.666667
vt 0.000000 0.666667
vt 0.250000 0.666667
vt 0.375000 0.666667
vt 0.500000 0.666667
vt 0.625000 0.666667
vt 0.750000 0.666667
vt 0.875000 0.666667
vt 1.000000 0.666667
vt 0.125000 0.833333
vt 0.000000 0.833333
vt 0.250000 0.833333
vt 0.375000 0.833333
vt 0.500000 0.833333
vt 0.625000 0.833333
vt 0.750000 0.833333
vt 0.875000 0.833333
vt 1.000000 0.833333
vt 0.062500 0.000000
vt 0.187500 0.000000
vt 0.312500 0.000000
vt 0.437500 0.000000
vt 0.562500 0.000000
vt 0.687500 0.000000
vt 0.812500 0.000000
vt 0.937500 0.000000
vt 0.062500 1.000000
vt 0.187500 1.000000
vt 0.312500 1.000000
vt 0.437500 1.000000
vt 0.562500 1.000000
vt 0.687500 1.000000
vt 0.812500 1.000000
vt 0.937500 1.000000
vt 0.125000 0.333333
vt 0.250000 0.333333
vt 0.125000 0.500000
vt 0.375000 0.333333
vt 0.375000 0.500000
vt 0.250000 0.666667
vt 0.125000 0.666667
vt 0.375000 0.666667
vt 0.125000 0.333333
vt 0.250000 0.333333
vt 0.125000 0.500000
vt 0.375000 0.333333
vt 0.375000 0.500000
vt 0.250000 0.666667
vt 0.125000 0.666667
vt 0.375000 0.666667
vn -0.651518 -0.678598 0.339158
vn -0.651518 -0.678598 0.339158
vn -0.651518 -0.678598 0.339158
vn -0.651518 -0.678598 0.339158
vn -0.220871 -0.678598 0.700514
vn -0.220871 -0.678598 0.700514
vn 0.339158 -0.678598 0.651518
vn 0.339158 -0.678598 0.651518
vn 0.700514 -0.678598 0.220871
vn 0.700514 -0.678598 0.220871
vn 0.651518 -0.678598 -0.339158
vn 0.651518 -0.678598 -0.339158
vn 0.220871 -0.678598 -0.700514
vn 0.220871 -0.678598 -0.700514
vn -0.339158 -0.678598 -0.651518
vn -0.339158 -0.678598 -0.651518
vn -0.861020 -0.240299 0.448219
vn -0.861020 -0.240299 0.448219
vn 0.925772 -0.240299 0.291895
vn 0.925772 -0.240299 0.291895
vn 0.861020 -0.240299 -0.448219
vn 0.291895 -0.240299 -0.925772
vn -0.448219 -0.240299 -0.861020
vn -0.861020 0.240299 0.448219
vn -0.861020 0.240299 0.448219
vn 0.925772 0.240299 0.291895
vn 0.925772 0.240299 0.291895
vn 0.861020 0.240299 -0.448219
vn 0.291895 0.240299 -0.925772
vn -0.448219 0.240299 -0.861020
vn -0.651518 0.678598 0.339158
vn -0.651518 0.678598 0.339158
vn -0.220871 0.678598 0.700514
vn -0.220871 0.678598 0.700514
vn 0.339158 0.678598 0.651518
vn 0.700514 0.678598 0.220871
vn 0.651518 0.678598 -0.339158
vn 0.220871 0.678598 -0.700514
vn -0.339158 0.678598 -0.651518
vn -0.247075 -0.960423 0.128618
vn -0.247075 0.960423 0.128618
vn -0.291895 -0.240299 0.925772
vn -0.291895 -0.240299 0.925772
vn -0.291895 -0.240299 0.925772
vn 0.448219 -0.240299 0.861020
vn 0.448219 -0.240299 0.861020
vn -0.291895 0.240299 0.925772
vn -0.291895 0.240299 0.925772
vn 0.448219 0.240299 0.861020
vn -0.291895 -0.240299 0.925772
vn -0.291895 -0.240299 0.925772
vn -0.291895 -0.240299 0.925772
vn 0.448219 -0.240299 0.861020
vn 0.448219 -0.240299 0.861020
vn -0.291895 0.240299 0.925772
vn -0.291895 0.240299 0.925772
vn 0.448219 0.240299 0.861020
s 1
g sphere_pSphere1
f 1/1/1 2/2/2 10/3/3 9/4/4
f 2/2/2 3/5/5 11/6/6 10/3/3
f 3/5/5 4/7/7 12/8/8 11/6/6
f 4/7/7 5/9/9 13/10/10 12/8/8
f 5/9/9 6/11/11 14/12/12 13/10/10
f 6/11/11 7/13/13 15/14/14 14/12/12
f 7/13/13 8/15/15 16/16/16 15/14/14
f 8/15/15 1/17/1 9/18/4 16/16/16
f 9/4/4 10/3/3 18/19/17 17/20/18
f 12/8/8 13/10/10 20/22/19 19/21/20
f 13/10/10 14/12/12 21/23/21 20/22/19
f 14/12/12 15/14/14 22/24/22 21/23/21
f 15/14/14 16/16/16 23/25/23 22/24/22
f 16/16/16 9/18/4 17/26/18 23/25/23
f 17/20/18 18/19/17 25/27/24 24/28/25
f 19/21/20 20/22/19 28/31/26 27/30/27
f 20/22/19 21/23/21 29/32/28 28/31/26
f 21/23/21 22/24/22 30/33/29 29/32/28
f 22/24/22 23/25/23 31/34/30 30/33/29
f 23/25/23 17/26/18 24/35/25 31/34/30
f 24/28/25 25/27/24 33/36/31 32/37/32
f 25/27/24 26/29/33 34/38/34 33/36/31
f 26/29/33 27/30/27 35/39/35 34/38/34
f 27/30/27 28/31/26 36/40/36 35/39/35
f 28/31/26 29/32/28 37/41/37 36/40/36
f 29/32/28 30/33/29 38/42/38 37/41/37
f 30/33/29 31/34/30 39/43/39 38/42/38
f 31/34/30 24/35/25 32/44/32 39/43/39
f 2/2/2 1/1/1 40/45/40
f 3/5/5 2/2/2 40/46/40
f 4/7/7 3/5/5 40/47/40
f 5/9/9 4/7/7 40/48/40
f 6/11/11 5/9/9 40/49/40
f 7/13/13 6/11/11 40/50/40
f 8/15/15 7/13/13 40/51/40
f 1/17/1 8/15/15 40/52/40
f 32/37/32 33/36/31 41/53/41
f 33/36/31 34/38/34 41/54/41
f 34/38/34 35/39/35 41/55/41
f 35/39/35 36/40/36 41/56/41
f 36/40/36 37/41/37 41/57/41
f 37/41/37 38/42/38 41/58/41
f 38/42/38 39/43/39 41/59/41
f 39/43/39 32/44/32 41/60/41
f 10/3/3 11/6/6 42/62/42 43/61/43
f 18/19/17 10/3/3 43/61/43 44/63/44
f 11/6/6 12/8/8 45/64/45 42/62/42
f 12/8/8 19/21/20 46/65/46 45/64/45
f 26/29/33 25/27/24 48/67/47 47/66/48
f 25/27/24 18/19/17 44/63/44 48/67/47
f 19/21/20 27/30/27 49/68/49 46/65/46
f 27/30/27 26/29/33 47/66/48 49/68/49
f 43/61/43 42/62/42 50/70/50 51/69/51
f 44/63/44 43/61/43 51/69/51 52/71/52
f 42/62/42 45/64/45 53/72/53 50/70/50
f 45/64/45 46/65/46 54/73/54 53/72/53
f 47/66/48 48/67/47 56/75/55 55/74/56
f 48/67/47 44/63/44 52/71/52 56/75/55
f 46/65/46 49/68/49 57/76/57 54/73/54
f 49/68/49 47/66/48 55/74/56 57/76/57
