# This file uses centimeters as units for non-parametric coordinates.

g default
v -0.905460 -1.383948 2.068126
v 0.905460 -1.383948 2.068126
v -0.847497 1.779659 2.068126
v 0.847497 1.779659 2.068126
v -0.847497 1.806308 -2.068126
v 0.847497 1.806308 -2.068126
v -0.905460 -1.383948 -2.068126
v 0.905460 -1.383948 -2.068126
v 1.376108 0.000000 2.243294
v -1.376108 0.000000 2.243294
v -1.376108 0.000000 -2.479820
v 1.376108 0.000000 -2.479820
v 1.376108 -0.691974 2.068126
v -1.376108 -0.691974 2.068126
v -1.376108 -0.691974 -2.479820
v 1.376108 -0.691974 -2.479820
v 0.847497 1.806308 -0.632343
v -0.847497 1.806308 -0.632343
v -1.376108 0.000000 -0.632343
v -1.376108 -0.691974 -0.632343
v -0.905460 -1.383948 -0.632343
v 0.905460 -1.383948 -0.632343
v 1.376108 -0.691974 -0.632343
v 1.376108 0.000000 -0.632343
v 0.847497 1.383948 -0.227439
v -0.847497 1.383948 -0.227439
v -1.376108 0.000000 -0.227439
v -1.376108 -0.691974 -0.227439
v -0.905460 -1.383948 -0.227439
v 0.905460 -1.383948 -0.227439
v 1.376108 -0.691974 -0.227439
v 1.376108 0.000000 -0.227439
v 1.133252 -0.506543 -0.034110
v -1.133252 -0.506543 -0.034110
v 1.133252 -0.185431 -0.034110
v -1.133252 -0.185431 -0.034110
v 0.847497 1.383948 0.920344
v -0.847497 1.383948 0.920344
v 1.111803 0.691974 2.068126
v -1.111803 0.691974 2.068126
vt 0.375000 0.000000
vt 0.625000 0.000000
vt 0.375000 0.250000
vt 0.625000 0.250000
vt 0.375000 0.500000
vt 0.625000 0.500000
vt 0.375000 0.750000
vt 0.625000 0.750000
vt 0.375000 1.000000
vt 0.625000 1.000000
vt 0.875000 0.000000
vt 0.875000 0.250000
vt 0.125000 0.000000
vt 0.125000 0.250000
vt 0.625000 0.125000
vt 0.375000 0.125000
vt 0.125000 0.125000
vt 0.375000 0.625000
vt 0.625000 0.625000
vt 0.875000 0.125000
vt 0.625000 0.062500
vt 0.375000 0.062500
vt 0.125000 0.062500
vt 0.375000 0.687500
vt 0.625000 0.687500
vt 0.875000 0.062500
vt 0.625000 0.375000
vt 0.750000 0.250000
vt 0.250000 0.250000
vt 0.375000 0.375000
vt 0.250000 0.125000
vt 0.250000 0.062500
vt 0.250000 0.000000
vt 0.375000 0.875000
vt 0.625000 0.875000
vt 0.750000 0.000000
vt 0.750000 0.062500
vt 0.750000 0.125000
vt 0.625000 0.312500
vt 0.687500 0.250000
vt 0.312500 0.250000
vt 0.375000 0.312500
vt 0.312500 0.125000
vt 0.312500 0.062500
vt 0.312500 0.000000
vt 0.375000 0.937500
vt 0.625000 0.937500
vt 0.687500 0.000000
vt 0.687500 0.062500
vt 0.687500 0.125000
vt 0.343750 0.062500
vt 0.656250 0.062500
vt 0.656250 0.125000
vt 0.343750 0.125000
vt 0.375000 0.281250
vt 0.625000 0.281250
vt 0.625000 0.187500
vt 0.375000 0.187500
vt 0.343750 0.250000
vt 0.656250 0.250000
vn 0.000000 0.000000 1.000000
vn 0.000000 0.000000 1.000000
vn 0.000000 0.000000 1.000000
vn 0.000000 0.000000 1.000000
vn 0.000000 -0.206521 -0.978442
vn 0.000000 -0.206521 -0.978442
vn 0.000000 -0.511305 -0.859400
vn 0.000000 -0.511305 -0.859400
vn 0.000000 -1.000000 0.000000
vn 0.000000 -1.000000 0.000000
vn 0.000000 -1.000000 0.000000
vn 0.000000 -1.000000 0.000000
vn 0.826868 -0.562397 0.000000
vn 0.826868 -0.562397 0.000000
vn 0.860715 -0.509087 0.000000
vn 0.826868 -0.562397 0.000000
vn -0.826868 -0.562397 0.000000
vn -0.826868 -0.562397 0.000000
vn -0.826868 -0.562397 0.000000
vn -0.860715 -0.509087 0.000000
vn 0.000000 0.222221 -0.974996
vn 0.000000 0.222221 -0.974996
vn 0.000000 0.143122 -0.989705
vn 0.000000 0.143122 -0.989705
vn 0.000000 0.000000 1.000000
vn 0.000000 0.000000 1.000000
vn 0.000000 0.000000 1.000000
vn 0.000000 0.000000 1.000000
vn 0.000000 0.974671 0.223645
vn 0.000000 0.974671 0.223645
vn 0.000000 1.000000 0.000000
vn 0.000000 1.000000 0.000000
vn -0.981486 0.191535 0.000000
vn -0.978581 0.204778 0.021131
vn -0.958602 0.284263 0.016645
vn -0.959747 0.280867 0.000000
vn -0.967143 -0.254233 0.000000
vn -0.951371 -0.308047 0.000000
vn -0.826867 -0.562397 0.000000
vn -0.826868 -0.562397 0.000000
vn 0.000000 -1.000000 0.000000
vn 0.000000 -1.000000 0.000000
vn 0.000000 -1.000000 0.000000
vn 0.000000 -1.000000 0.000000
vn 0.951371 -0.308047 0.000000
vn 0.826868 -0.562397 0.000000
vn 0.826867 -0.562397 0.000000
vn 0.967143 -0.254233 0.000000
vn 0.978581 0.204778 0.021131
vn 0.981486 0.191535 0.000000
vn 0.958602 0.284263 0.016645
vn 0.959747 0.280867 0.000000
vn -0.003963 0.996165 0.087411
vn 0.003963 0.996165 0.087411
vn 0.044655 0.995577 0.082658
vn -0.044655 0.995577 0.082658
vn -0.606868 0.794803 -0.000000
vn 0.606868 0.794803 -0.000000
vn 0.000000 1.000000 0.000000
vn 0.000000 1.000000 0.000000
vn 0.000000 0.964937 0.262481
vn 0.000000 0.964937 0.262481
vn 0.000000 0.245401 0.969422
vn 0.000000 0.245401 0.969422
vn 0.000000 0.245401 0.969422
vn 0.000000 0.245401 0.969422
vn -0.937307 0.346132 0.040609
vn -0.944989 0.325902 0.028008
vn -0.934175 0.356816 -0.000000
vn -0.934175 0.356816 -0.000000
vn -0.934175 0.356816 -0.000000
vn 0.934175 0.356816 -0.000000
vn 0.934175 0.356816 -0.000000
vn 0.934175 0.356816 -0.000000
vn 0.944989 0.325902 0.028008
vn 0.937307 0.346132 0.040609
vn 0.044852 -0.996074 0.076320
vn 0.003620 -0.996726 0.080770
vn -0.003620 -0.996726 0.080770
vn -0.044852 -0.996074 0.076320
vn -0.606867 -0.794803 0.000000
vn -0.622815 0.000000 0.782370
vn -0.622815 0.000000 0.782370
vn -0.622815 0.000000 0.782370
vn -0.622815 0.000000 0.782370
vn 0.622815 0.000000 0.782370
vn 0.622815 0.000000 0.782370
vn 0.622815 0.000000 0.782370
vn 0.622815 0.000000 0.782369
vn 0.606867 -0.794803 0.000000
vn 0.968518 0.235348 -0.081139
vn 0.968518 0.235348 -0.081139
vn 0.968518 0.235348 -0.081139
vn 0.000000 0.000000 1.000000
vn 0.000000 0.000000 1.000000
vn 0.000000 0.000000 1.000000
vn 0.000000 0.000000 1.000000
vn -0.968518 0.235348 -0.081139
vn -0.968518 0.235348 -0.081139
vn -0.968518 0.235348 -0.081139
vn 0.000000 0.945392 -0.325934
vn 0.000000 0.945392 -0.325934
vn 0.000000 0.945392 -0.325934
vn 0.000000 0.945392 -0.325934
s off
g pCube1
f 1/1/1 2/2/2 13/21/3 14/22/4
s 1
f 15/24/5 16/25/6 8/8/7 7/7/8
s 2
f 29/46/9 30/47/10 2/10/11 1/9/12
s 3
f 2/2/13 30/48/14 31/49/15 13/21/16
s 4
f 29/45/17 1/1/18 14/22/19 28/44/20
s 1
f 5/5/21 6/6/22 12/19/23 11/18/24
s off
f 34/51/25 33/52/26 35/53/27 36/54/28
s 1
f 11/18/24 12/19/23 16/25/6 15/24/5
s 5
f 18/30/29 17/27/30 6/6/31 5/5/32
s 4
f 11/17/33 19/31/34 18/29/35 5/14/36
f 15/23/37 20/32/38 19/31/34 11/17/33
f 7/13/39 21/33/40 20/32/38 15/23/37
s 2
f 7/7/41 8/8/42 22/35/43 21/34/44
s 3
f 23/37/45 22/36/46 8/11/47 16/26/48
f 24/38/49 23/37/45 16/26/48 12/20/50
f 17/28/51 24/38/49 12/20/50 6/12/52
s 4
f 21/33/40 29/45/17 28/44/20 20/32/38
s 2
f 21/34/44 22/35/43 30/47/10 29/46/9
s 3
f 31/49/15 30/48/14 22/36/46 23/37/45
s 7
f 14/22/53 13/21/54 33/52/55 34/51/56
f 28/44/57 14/22/53 34/51/56
f 13/21/54 31/49/58 33/52/55
s 5
f 38/55/59 37/56/60 25/39/61 26/42/62
s off
f 39/57/63 40/58/64 10/16/65 9/15/66
s 4
f 26/41/67 27/43/68 10/16/69 40/58/70 38/59/71
s 3
f 37/60/72 39/57/73 9/15/74 32/50/75 25/40/76
s 5
f 18/30/29 26/42/62 25/39/61 17/27/30
s 4
f 18/29/35 19/31/34 27/43/68 26/41/67
f 19/31/34 20/32/38 28/44/20 27/43/68
s 3
f 24/38/49 32/50/75 31/49/15 23/37/45
f 17/28/51 25/40/76 32/50/75 24/38/49
s 8
f 35/53/77 9/15/78 10/16/79 36/54/80
f 10/16/79 27/43/81 36/54/80
s off
f 36/54/82 27/43/83 28/44/84 34/51/85
f 33/52/86 31/49/87 32/50/88 35/53/89
s 8
f 32/50/90 9/15/78 35/53/77
s off
f 39/57/91 37/60/92 4/4/93
f 40/58/94 39/57/95 4/4/96 3/3/97
f 38/59/98 40/58/99 3/3/100
f 37/56/101 38/55/102 3/3/103 4/4/104
