# This file uses centimeters as units for non-parametric coordinates.

g default
v -5.777791 -0.000000 16.903857
v 79.750426 -2.978055 16.903857
v -5.777791 0.000000 14.165523
v 79.750426 -2.978055 14.165523
v -5.777791 10.756024 16.903857
v -5.777791 10.756024 14.165523
v -49.212417 10.756024 16.903857
v -49.212417 10.756024 14.165523
v 158.410079 -2.978055 16.903857
v 158.410079 -2.978055 14.165523
v 79.750426 -2.978055 51.309585
v 158.410079 -2.978055 51.309585
v 79.750426 -2.978055 -58.623673
v 158.410079 -2.978055 -58.623673
v 52.228583 0.000000 14.165523
v 52.228583 -0.000000 16.903857
v 49.350058 0.000000 14.165523
v 49.350058 -0.000000 16.903857
v 49.350058 0.000000 -42.382806
v 52.228583 0.000000 -42.382806
v -67.166620 35.283615 16.903857
v -67.166620 35.283615 14.165523
v 49.350058 0.000000 -45.295567
v 52.228583 0.000000 -45.295567
v 79.750426 -2.978055 -41.445622
v 79.750426 -2.978055 -46.761372
vt 0.000000 0.000000
vt 0.000000 0.239049
vt 0.000000 0.000000
vt 1.000000 0.000000
vt 1.000000 1.000000
vt 0.000000 1.000000
vt 0.000000 0.000000
vt 1.000000 0.000000
vt 1.000000 1.000000
vt 0.000000 1.000000
vt 0.000000 0.000000
vt 1.000000 0.000000
vt 1.000000 1.000000
vt 0.000000 1.000000
vt 0.000000 0.000000
vt 1.000000 0.000000
vt 1.000000 1.000000
vt 0.000000 1.000000
vt 0.000000 0.000000
vt 1.000000 0.000000
vt 1.000000 1.000000
vt 0.000000 1.000000
vt 0.687836 0.239049
vt 0.687836 0.000000
vt 0.650365 0.239049
vt 0.650365 0.000000
vt 0.000000 0.000000
vt 1.000000 0.000000
vt 1.000000 1.000000
vt 0.000000 1.000000
vt 0.000000 0.000000
vt 1.000000 0.000000
vt 1.000000 1.000000
vt 0.000000 1.000000
vt 0.000000 0.000000
vt 1.000000 0.000000
vt 1.000000 1.000000
vt 0.000000 1.000000
vt 0.000000 0.000000
vt 1.000000 0.000000
vt 1.000000 1.000000
vt 0.000000 1.000000
vn 1.000000 0.000000 0.000000
vn 1.000000 0.000000 0.000000
vn 1.000000 0.000000 0.000000
vn 1.000000 0.000000 0.000000
vn 0.000000 1.000000 0.000000
vn 0.000000 1.000000 0.000000
vn 0.000000 1.000000 0.000000
vn 0.000000 1.000000 0.000000
vn 0.000000 1.000000 0.000000
vn 0.000000 1.000000 0.000000
vn 0.000000 1.000000 0.000000
vn 0.000000 1.000000 0.000000
vn 0.000000 1.000000 0.000000
vn 0.000000 1.000000 0.000000
vn 0.000000 1.000000 0.000000
vn 0.000000 1.000000 0.000000
vn 0.000000 1.000000 0.000000
vn 0.000000 1.000000 0.000000
vn 0.000000 1.000000 0.000000
vn 0.000000 1.000000 0.000000
vn 0.000000 1.000000 0.000000
vn 0.000000 1.000000 0.000000
vn 0.000000 1.000000 0.000000
vn 0.000000 1.000000 0.000000
vn 0.000000 1.000000 0.000000
vn 0.000000 1.000000 0.000000
vn 0.000000 1.000000 0.000000
vn 0.000000 1.000000 0.000000
vn 0.000000 1.000000 0.000000
vn 0.000000 1.000000 0.000000
vn 0.806918 0.590664 0.000000
vn 0.806918 0.590664 0.000000
vn 0.806918 0.590664 0.000000
vn 0.806918 0.590664 0.000000
vn 0.000000 1.000000 0.000000
vn 0.000000 1.000000 0.000000
vn 0.000000 1.000000 0.000000
vn 0.000000 1.000000 0.000000
vn 0.107579 0.994197 0.000000
vn 0.107579 0.994197 0.000000
vn 0.107579 0.994197 0.000000
vn 0.107579 0.994197 0.000000
s off
g pPlane2
f 1/3/1 3/4/2 6/5/3 5/6/4
f 5/7/5 6/8/6 8/9/7 7/10/8
f 4/11/9 2/12/10 9/13/11 10/14/12
f 9/15/13 2/16/14 11/17/15 12/18/16
f 4/19/17 10/20/18 14/21/19 13/22/20
s 1
f 18/26/21 16/24/22 15/23/23 17/25/24
f 1/1/25 18/26/21 17/25/24 3/2/26
s off
f 17/27/27 15/28/28 20/29/29 19/30/30
f 7/31/31 8/32/32 22/33/33 21/34/34
f 19/35/35 20/36/36 24/37/37 23/38/38
f 24/39/39 20/40/40 25/41/41 26/42/42
