# This file uses centimeters as units for non-parametric coordinates.

g default
v -31.836012 47.935616 139.869104
v -187.969612 43.850591 145.254531
v -177.079977 47.935616 145.296136
v -94.480335 47.935627 145.366359
v -80.755033 47.935627 145.394708
v -52.697255 47.935616 145.452638
v -47.391434 47.935627 137.962178
v -154.032674 3.466853 56.700591
v -106.954096 3.466853 46.489954
v -81.540764 3.466853 50.521483
v -56.432173 3.466853 56.848942
v -154.074336 3.466853 64.738145
v -94.313869 3.466853 64.808323
v -84.257718 3.466853 77.709871
v -56.473689 3.466853 64.886473
v -154.115997 3.466853 84.910011
v -94.355474 3.466853 84.980189
v -76.687227 3.466853 85.016689
v -56.515316 3.466853 85.058339
v -32.435169 18.940616 85.114186
v -94.397169 12.496271 105.152100
v -80.671979 12.496271 107.506854
v -52.614089 12.496271 107.564806
v -43.335429 12.958797 105.244402
v -32.220917 20.039893 105.286053
v -218.703477 12.357290 125.341634
v -57.553703 15.064804 119.525957
v -57.531691 11.476230 108.780855
v -75.769134 11.476230 108.743191
v -75.791235 15.064804 119.488271
v -66.726133 47.935627 145.423684
v -66.672435 15.064804 119.507103
v -66.650356 11.476230 108.762046
v -66.643079 12.496271 105.209380
v -66.601272 3.466853 85.037514
v -64.324399 0.907097 81.581652
v -66.518106 5.015477 56.828094
v -94.355474 6.317871 84.980189
v -94.397169 15.347291 105.152100
v -32.455994 19.361142 95.200097
v -43.314671 9.204630 95.158492
v -54.564747 11.611833 97.170797
v -66.622254 11.611833 95.123470
v -78.679805 11.611833 97.121018
v -94.376456 10.832579 95.066145
v -94.376456 7.981561 95.066145
v -179.406472 -1.496150 26.867600
v -179.459363 3.409174 54.243962
v -20.701996 18.394898 82.937811
v -17.705875 9.075028 95.739779
v -234.261966 -4.497812 119.615617
v -202.562669 41.980792 159.273153
v -188.740744 47.165862 159.326022
v -96.988321 47.165884 159.415166
v -79.567042 47.165884 159.451106
v -61.760230 47.165884 159.487897
v -43.953553 47.165862 159.524621
v -37.219155 47.165884 150.017110
v -17.474740 47.165862 152.437698
v -154.053510 3.466853 58.412310
v -94.292999 3.466853 60.789557
v -76.624752 3.466853 60.826057
v -66.538797 3.466853 60.846882
v -56.452886 3.466853 60.867651
v -154.063912 3.466853 62.728773
v -94.303434 3.466853 62.798951
v -76.635299 3.466853 62.835451
v -66.549321 3.466853 62.856276
v -56.463388 3.466853 62.877101
v -62.703202 2.219828 54.296864
v -62.291941 -2.747872 41.108770
v -59.146976 -2.747872 41.129607
v -58.768296 2.219828 54.317690
v -48.417661 16.096008 105.244402
v -48.396903 12.341841 95.158492
v -186.170741 2.847889 30.504372
v -191.431251 2.847889 38.293995
vt 0.833333 0.833333
vt 0.833333 0.666667
vt 0.833333 0.500000
vt 0.833333 0.416667
vt 0.833333 0.333333
vt 0.750000 0.833333
vt 0.750000 0.666667
vt 0.750000 0.500000
vt 0.750000 0.416667
vt 0.750000 0.333333
vt 0.500000 0.833333
vt 0.666667 0.833333
vt 0.500000 0.666667
vt 0.666667 0.666667
vt 0.500000 0.500000
vt 0.666667 0.500000
vt 0.500000 0.416667
vt 0.666667 0.416667
vt 0.666667 0.333333
vt 0.500000 0.333333
vt 0.333333 0.666667
vt 0.416667 0.666667
vt 0.416667 0.666667
vt 0.333333 0.666667
vt 0.333333 0.416667
vt 0.416667 0.416667
vt 0.416667 0.500000
vt 0.333333 0.500000
vt 0.333333 0.166667
vt 0.416667 0.166667
vt 0.333333 0.000000
vt 0.416667 0.000000
vt 0.416667 0.166667
vt 0.333333 0.166667
vt 0.166667 0.416667
vt 0.333333 0.416667
vt 0.333333 0.500000
vt 0.166667 0.500000
vt 0.333333 0.333333
vt 0.166667 0.333333
vt 0.333333 0.333333
vt 0.416667 0.333333
vt 0.500000 0.666667
vt 1.000000 1.000000
vt 0.000000 1.000000
vt 0.000000 0.000000
vt 1.000000 0.000000
vt 1.000000 1.000000
vt 0.000000 1.000000
vt 0.000000 0.000000
vt 1.000000 0.000000
vt 1.000000 1.000000
vt 0.000000 1.000000
vt 0.000000 0.000000
vt 1.000000 0.000000
vt 1.000000 1.000000
vt 0.000000 1.000000
vt 0.000000 0.000000
vt 1.000000 0.000000
vt 1.000000 1.000000
vt 0.000000 1.000000
vt 0.000000 0.000000
vt 1.000000 0.000000
vt 1.000000 1.000000
vt 0.000000 1.000000
vt 0.000000 0.000000
vt 1.000000 0.000000
vt 1.000000 1.000000
vt 0.000000 1.000000
vt 0.000000 0.000000
vt 1.000000 0.000000
vt 1.000000 1.000000
vt 0.000000 1.000000
vt 0.000000 0.000000
vt 1.000000 0.000000
vt 1.000000 1.000000
vt 0.000000 1.000000
vt 0.000000 0.000000
vt 1.000000 0.000000
vt 1.000000 1.000000
vt 0.000000 1.000000
vt 0.708333 0.666667
vt 0.708333 0.833333
vt 0.708333 0.500000
vt 0.708333 0.416667
vt 0.708333 0.333333
vt 0.000000 0.000000
vt 1.000000 0.000000
vt 1.000000 1.000000
vt 0.000000 1.000000
vt 0.000000 0.000000
vt 1.000000 0.000000
vt 1.000000 1.000000
vt 0.000000 1.000000
vt 1.000000 1.000000
vt 0.000000 1.000000
vn 0.000000 1.000000 0.000000
vn 0.000000 1.000000 0.000000
vn 0.000000 1.000000 0.000000
vn 0.000000 1.000000 0.000000
vn 0.000000 1.000000 0.000000
vn 0.000000 1.000000 0.000000
vn 0.000000 1.000000 0.000000
vn 0.000000 1.000000 0.000000
vn -0.095902 0.985590 0.139338
vn 0.000000 1.000000 0.000000
vn 0.000000 1.000000 0.000000
vn -0.095902 0.985590 0.139338
vn 0.000000 1.000000 0.000000
vn 0.000000 1.000000 0.000000
vn 0.000000 1.000000 0.000000
vn 0.000000 1.000000 0.000000
vn 0.000000 1.000000 0.000000
vn 0.000000 1.000000 0.000000
vn 0.000000 1.000000 0.000000
vn 0.000000 1.000000 0.000000
vn 0.000000 1.000000 0.000000
vn 0.000000 1.000000 0.000000
vn 0.000000 1.000000 0.000000
vn 0.000000 1.000000 0.000000
vn -0.379736 0.855694 -0.351551
vn -0.378189 0.842613 -0.383375
vn -0.377779 0.839528 -0.390481
vn -0.379736 0.855694 -0.351551
vn 0.000000 1.000000 0.000000
vn 0.000000 1.000000 0.000000
vn 0.000000 1.000000 0.000000
vn 0.000000 1.000000 0.000000
vn 0.074779 0.979119 0.189037
vn 0.000000 1.000000 0.000000
vn 0.000000 1.000000 0.000000
vn 0.074779 0.979119 0.189037
vn -0.999998 0.000000 -0.002065
vn -0.999998 0.000000 -0.002065
vn -0.999998 0.000000 -0.002065
vn -0.999998 0.000000 -0.002065
vn -0.999998 0.000000 -0.002065
vn -0.999998 0.000000 -0.002065
vn -0.999998 0.000000 -0.002065
vn -0.999998 0.000000 -0.002065
vn -0.561268 0.737048 -0.376481
vn -0.561268 0.737048 -0.376481
vn -0.561268 0.737048 -0.376481
vn -0.561268 0.737048 -0.376481
vn -0.340761 0.910756 -0.233250
vn -0.340761 0.910756 -0.233250
vn -0.340761 0.910756 -0.233250
vn -0.340761 0.910756 -0.233250
vn -0.000050 0.998502 0.054721
vn -0.000050 0.998502 0.054721
vn -0.000050 0.998502 0.054721
vn -0.000050 0.998502 0.054721
vn -0.000113 0.998504 0.054689
vn -0.000113 0.998504 0.054689
vn -0.000113 0.998504 0.054689
vn -0.000113 0.998504 0.054689
vn -0.000113 0.998504 0.054689
vn -0.000113 0.998504 0.054689
vn -0.000113 0.998504 0.054689
vn -0.000113 0.998504 0.054689
vn 0.041085 0.998732 0.029104
vn 0.041085 0.998732 0.029104
vn 0.041085 0.998732 0.029104
vn 0.041085 0.998732 0.029104
vn -0.008708 0.997436 0.071037
vn -0.008708 0.997436 0.071037
vn -0.008708 0.997436 0.071037
vn -0.008708 0.997436 0.071037
vn -0.000112 0.998504 0.054688
vn -0.000112 0.998504 0.054688
vn -0.000112 0.998504 0.054688
vn -0.000112 0.998504 0.054688
vn 0.377435 0.878608 0.292559
vn 0.377435 0.878608 0.292559
vn 0.377435 0.878608 0.292559
vn 0.377435 0.878608 0.292559
vn 0.000000 1.000000 -0.000000
vn 0.000000 1.000000 -0.000000
vn 0.000000 1.000000 -0.000000
vn 0.000000 1.000000 -0.000000
vn 0.000000 1.000000 -0.000000
vn 0.000000 1.000000 -0.000000
vn 0.000000 1.000000 -0.000000
vn 0.000000 1.000000 -0.000000
vn 0.000000 1.000000 0.000000
vn 0.000000 1.000000 0.000000
vn 0.000000 1.000000 0.000000
vn 0.000000 1.000000 0.000000
vn 0.000000 1.000000 0.000000
vn 0.000000 1.000000 0.000000
vn 0.000000 1.000000 0.000000
vn 0.000000 1.000000 0.000000
vn 0.000000 1.000000 0.000000
vn 0.000000 1.000000 -0.000001
vn 0.000000 1.000000 -0.000001
vn 0.000000 1.000000 0.000000
vn 0.000000 1.000000 0.000000
vn 0.000000 1.000000 0.000000
vn 0.000000 1.000000 0.000000
vn 0.000000 1.000000 0.000000
vn 0.000000 1.000000 0.000000
vn 0.073370 0.993461 0.087472
vn 0.073370 0.993461 0.087472
vn 0.000000 1.000000 0.000000
vn 0.000000 1.000000 0.000000
vn -0.025214 0.991819 0.125135
vn -0.025214 0.991819 0.125135
vn 0.000000 1.000000 0.000000
vn 0.089149 0.790842 -0.605492
vn 0.089149 0.790842 -0.605492
vn 0.089149 0.790842 -0.605492
vn 0.089149 0.790842 -0.605492
vn 0.002074 0.935810 -0.352499
vn 0.002074 0.935810 -0.352499
vn 0.002074 0.935810 -0.352499
vn 0.002074 0.935810 -0.352499
vn 0.500910 0.811469 -0.301012
vn 0.500910 0.811469 -0.301012
vn 0.190241 0.859682 -0.474084
vn 0.235231 0.942074 -0.239090
vn -0.256833 -0.961741 0.095348
vn -0.256833 -0.961741 0.095348
vn -0.256833 -0.961741 0.095348
vn -0.256833 -0.961741 0.095348
vn -0.014404 0.996062 -0.087482
vn -0.014404 0.996062 -0.087482
vn -0.014404 0.996062 -0.087482
vn -0.014404 0.996062 -0.087482
vn 0.000654 0.948501 -0.316773
vn 0.000654 0.948501 -0.316773
vn 0.000654 0.948501 -0.316773
vn 0.000654 0.948501 -0.316773
vn 0.000654 0.948501 -0.316773
vn 0.000654 0.948501 -0.316773
vn 0.000654 0.948501 -0.316773
vn 0.000654 0.948501 -0.316773
vn 0.014755 0.996062 -0.087421
vn 0.014755 0.996062 -0.087421
vn 0.014755 0.996062 -0.087421
vn 0.014755 0.996062 -0.087421
s off
g polySurface101 polySurface61 polySurface56 group2
f 61/7/1 9/2/2 8/1/3 60/6/4
f 62/8/5 10/3/6 9/2/7 61/7/8
f 63/9/9 37/4/10 10/3/11 62/8/12
f 17/13/13 13/14/14 12/12/15 16/11/16
f 18/15/17 14/16/18 13/14/19 17/13/20
f 35/17/21 36/18/22 14/16/23 18/15/24
f 25/31/25 40/32/26 41/33/27 24/34/28
f 19/20/29 15/19/30 36/18/31 35/17/32
f 64/10/33 11/5/34 37/4/35 63/9/36
f 46/22/37 21/21/38 39/24/39 45/23/40
f 17/13/41 46/22/42 45/23/43 38/43/44
f 2/46/45 26/47/46 51/48/47 52/49/48
f 3/50/49 2/51/50 52/52/51 53/53/52
f 4/54/53 3/55/54 53/56/55 54/57/56
f 5/58/57 4/59/58 54/60/59 55/61/60
f 31/62/61 5/63/62 55/64/63 56/65/64
f 7/66/65 6/67/66 57/68/67 58/69/68
f 1/70/69 7/71/70 58/72/71 59/73/72
f 6/74/73 31/75/74 56/76/75 57/77/76
f 20/78/77 40/79/78 50/80/79 49/81/80
f 66/82/81 61/7/82 60/6/83 65/83/84
f 67/84/85 62/8/86 61/7/87 66/82/88
f 68/85/89 63/9/90 62/8/91 67/84/92
f 69/86/93 64/10/94 63/9/95 68/85/96
f 13/14/97 66/82/98 65/83/99 12/12/100
f 14/16/101 67/84/102 66/82/103 13/14/104
f 36/18/105 68/85/106 67/84/107 14/16/108
f 15/19/109 69/86/110 68/85/111 36/18/112
f 37/87/113 11/88/114 73/89/115 70/90/116
f 71/91/117 70/92/118 73/93/119 72/94/120
f 24/34/121 41/33/122 75/30/123 74/29/124
f 47/95/125 48/96/126 77/45/127 76/44/128
f 34/25/129 43/26/130 44/27/131 22/28/132
f 30/38/133 32/35/134 33/36/135 29/37/136
f 32/35/137 27/40/138 28/39/139 33/36/140
f 34/25/141 23/41/142 42/42/143 43/26/144
